<mxfile host="Electron" modified="2024-03-14T12:25:53.626Z" agent="Mozilla/5.0 (Windows NT 10.0; Win64; x64) AppleWebKit/537.36 (KHTML, like Gecko) draw.io/23.1.5 Chrome/120.0.6099.109 Electron/28.1.0 Safari/537.36" etag="IFGa1do6d8L5DbRiQMkK" version="23.1.5" type="device">
  <diagram name="1 oldal" id="piJF8_BZ4FbkOGlX9JzV">
    <mxGraphModel dx="2920" dy="1055" grid="1" gridSize="10" guides="1" tooltips="1" connect="1" arrows="1" fold="1" page="1" pageScale="1" pageWidth="827" pageHeight="1169" math="0" shadow="0">
      <root>
        <mxCell id="0" />
        <mxCell id="1" parent="0" />
        <mxCell id="DoYMIIwpCdfCXVVVg08J-11" value="Felhasználó" style="rounded=0;whiteSpace=wrap;html=1;" parent="1" vertex="1">
          <mxGeometry x="90" y="180" width="120" height="60" as="geometry" />
        </mxCell>
        <mxCell id="DoYMIIwpCdfCXVVVg08J-12" value="Komment" style="rounded=0;whiteSpace=wrap;html=1;" parent="1" vertex="1">
          <mxGeometry x="432" y="500" width="120" height="60" as="geometry" />
        </mxCell>
        <mxCell id="DoYMIIwpCdfCXVVVg08J-15" value="Csoport" style="rounded=0;whiteSpace=wrap;html=1;" parent="1" vertex="1">
          <mxGeometry x="30" y="680" width="120" height="60" as="geometry" />
        </mxCell>
        <mxCell id="DoYMIIwpCdfCXVVVg08J-16" value="Album" style="rounded=0;whiteSpace=wrap;html=1;" parent="1" vertex="1">
          <mxGeometry x="380" y="940" width="120" height="60" as="geometry" />
        </mxCell>
        <mxCell id="DoYMIIwpCdfCXVVVg08J-17" value="Üzenet" style="rounded=0;whiteSpace=wrap;html=1;" parent="1" vertex="1">
          <mxGeometry x="120" y="400" width="120" height="60" as="geometry" />
        </mxCell>
        <mxCell id="DoYMIIwpCdfCXVVVg08J-18" value="Poszt" style="rounded=0;whiteSpace=wrap;html=1;" parent="1" vertex="1">
          <mxGeometry x="458" y="300" width="120" height="60" as="geometry" />
        </mxCell>
        <mxCell id="DoYMIIwpCdfCXVVVg08J-21" value="Fénykép" style="rounded=0;whiteSpace=wrap;html=1;" parent="1" vertex="1">
          <mxGeometry x="480" y="800" width="120" height="60" as="geometry" />
        </mxCell>
        <mxCell id="DoYMIIwpCdfCXVVVg08J-22" value="Értesítés" style="rounded=0;whiteSpace=wrap;html=1;" parent="1" vertex="1">
          <mxGeometry x="-130" y="499" width="120" height="60" as="geometry" />
        </mxCell>
        <mxCell id="xS7nU6-LhGZIR9sWQ-U--1" value="&lt;u&gt;id&lt;/u&gt;" style="ellipse;whiteSpace=wrap;html=1;" parent="1" vertex="1">
          <mxGeometry x="-80" y="40" width="90" height="60" as="geometry" />
        </mxCell>
        <mxCell id="xS7nU6-LhGZIR9sWQ-U--2" value="Név" style="ellipse;whiteSpace=wrap;html=1;" parent="1" vertex="1">
          <mxGeometry x="20" y="30" width="90" height="60" as="geometry" />
        </mxCell>
        <mxCell id="xS7nU6-LhGZIR9sWQ-U--3" value="Email" style="ellipse;whiteSpace=wrap;html=1;" parent="1" vertex="1">
          <mxGeometry x="110" y="20" width="90" height="60" as="geometry" />
        </mxCell>
        <mxCell id="xS7nU6-LhGZIR9sWQ-U--4" value="ROLE" style="ellipse;whiteSpace=wrap;html=1;" parent="1" vertex="1">
          <mxGeometry x="200" y="50" width="90" height="60" as="geometry" />
        </mxCell>
        <mxCell id="xS7nU6-LhGZIR9sWQ-U--5" value="szülDátum" style="ellipse;whiteSpace=wrap;html=1;" parent="1" vertex="1">
          <mxGeometry x="-150" y="100" width="90" height="60" as="geometry" />
        </mxCell>
        <mxCell id="xS7nU6-LhGZIR9sWQ-U--6" value="Állapot" style="ellipse;whiteSpace=wrap;html=1;" parent="1" vertex="1">
          <mxGeometry x="-180" y="240" width="90" height="60" as="geometry" />
        </mxCell>
        <mxCell id="xS7nU6-LhGZIR9sWQ-U--8" value="Jelszó" style="ellipse;whiteSpace=wrap;html=1;" parent="1" vertex="1">
          <mxGeometry x="-170" y="170" width="90" height="60" as="geometry" />
        </mxCell>
        <mxCell id="xS7nU6-LhGZIR9sWQ-U--9" value="" style="endArrow=none;html=1;rounded=0;exitX=1;exitY=0;exitDx=0;exitDy=0;entryX=0;entryY=0.75;entryDx=0;entryDy=0;" parent="1" source="xS7nU6-LhGZIR9sWQ-U--6" target="DoYMIIwpCdfCXVVVg08J-11" edge="1">
          <mxGeometry width="50" height="50" relative="1" as="geometry">
            <mxPoint x="80" y="550" as="sourcePoint" />
            <mxPoint x="130" y="500" as="targetPoint" />
          </mxGeometry>
        </mxCell>
        <mxCell id="xS7nU6-LhGZIR9sWQ-U--10" value="" style="endArrow=none;html=1;rounded=0;exitX=1;exitY=0.5;exitDx=0;exitDy=0;entryX=0;entryY=0.5;entryDx=0;entryDy=0;" parent="1" source="xS7nU6-LhGZIR9sWQ-U--8" target="DoYMIIwpCdfCXVVVg08J-11" edge="1">
          <mxGeometry width="50" height="50" relative="1" as="geometry">
            <mxPoint x="27" y="309" as="sourcePoint" />
            <mxPoint x="100" y="250" as="targetPoint" />
          </mxGeometry>
        </mxCell>
        <mxCell id="xS7nU6-LhGZIR9sWQ-U--11" value="" style="endArrow=none;html=1;rounded=0;exitX=1;exitY=0.5;exitDx=0;exitDy=0;entryX=0;entryY=0.25;entryDx=0;entryDy=0;" parent="1" source="xS7nU6-LhGZIR9sWQ-U--5" target="DoYMIIwpCdfCXVVVg08J-11" edge="1">
          <mxGeometry width="50" height="50" relative="1" as="geometry">
            <mxPoint x="20" y="260" as="sourcePoint" />
            <mxPoint x="100" y="235" as="targetPoint" />
          </mxGeometry>
        </mxCell>
        <mxCell id="xS7nU6-LhGZIR9sWQ-U--12" value="" style="endArrow=none;html=1;rounded=0;exitX=1;exitY=1;exitDx=0;exitDy=0;entryX=0;entryY=0;entryDx=0;entryDy=0;" parent="1" source="xS7nU6-LhGZIR9sWQ-U--1" target="DoYMIIwpCdfCXVVVg08J-11" edge="1">
          <mxGeometry width="50" height="50" relative="1" as="geometry">
            <mxPoint x="40" y="190" as="sourcePoint" />
            <mxPoint x="100" y="205" as="targetPoint" />
          </mxGeometry>
        </mxCell>
        <mxCell id="xS7nU6-LhGZIR9sWQ-U--13" value="" style="endArrow=none;html=1;rounded=0;exitX=1;exitY=1;exitDx=0;exitDy=0;entryX=0.25;entryY=0;entryDx=0;entryDy=0;" parent="1" source="xS7nU6-LhGZIR9sWQ-U--2" target="DoYMIIwpCdfCXVVVg08J-11" edge="1">
          <mxGeometry width="50" height="50" relative="1" as="geometry">
            <mxPoint x="67" y="151" as="sourcePoint" />
            <mxPoint x="100" y="190" as="targetPoint" />
          </mxGeometry>
        </mxCell>
        <mxCell id="xS7nU6-LhGZIR9sWQ-U--14" value="" style="endArrow=none;html=1;rounded=0;exitX=0.5;exitY=1;exitDx=0;exitDy=0;entryX=0.5;entryY=0;entryDx=0;entryDy=0;" parent="1" source="xS7nU6-LhGZIR9sWQ-U--3" target="DoYMIIwpCdfCXVVVg08J-11" edge="1">
          <mxGeometry width="50" height="50" relative="1" as="geometry">
            <mxPoint x="117" y="91" as="sourcePoint" />
            <mxPoint x="130" y="190" as="targetPoint" />
          </mxGeometry>
        </mxCell>
        <mxCell id="xS7nU6-LhGZIR9sWQ-U--15" value="" style="endArrow=none;html=1;rounded=0;exitX=0.5;exitY=1;exitDx=0;exitDy=0;entryX=0.75;entryY=0;entryDx=0;entryDy=0;" parent="1" source="xS7nU6-LhGZIR9sWQ-U--4" target="DoYMIIwpCdfCXVVVg08J-11" edge="1">
          <mxGeometry width="50" height="50" relative="1" as="geometry">
            <mxPoint x="175" y="90" as="sourcePoint" />
            <mxPoint x="160" y="190" as="targetPoint" />
          </mxGeometry>
        </mxCell>
        <mxCell id="xS7nU6-LhGZIR9sWQ-U--17" value="Baráti_állapot" style="ellipse;whiteSpace=wrap;html=1;" parent="1" vertex="1">
          <mxGeometry x="395" y="40" width="90" height="60" as="geometry" />
        </mxCell>
        <mxCell id="xS7nU6-LhGZIR9sWQ-U--22" value="&lt;u&gt;id&lt;/u&gt;" style="ellipse;whiteSpace=wrap;html=1;" parent="1" vertex="1">
          <mxGeometry x="631" y="740" width="90" height="60" as="geometry" />
        </mxCell>
        <mxCell id="xS7nU6-LhGZIR9sWQ-U--23" value="fájl_név" style="ellipse;whiteSpace=wrap;html=1;" parent="1" vertex="1">
          <mxGeometry x="651" y="810" width="90" height="60" as="geometry" />
        </mxCell>
        <mxCell id="xS7nU6-LhGZIR9sWQ-U--27" value="Szöveg" style="ellipse;whiteSpace=wrap;html=1;" parent="1" vertex="1">
          <mxGeometry x="665" y="260" width="90" height="60" as="geometry" />
        </mxCell>
        <mxCell id="xS7nU6-LhGZIR9sWQ-U--28" value="&lt;u&gt;id&lt;/u&gt;" style="ellipse;whiteSpace=wrap;html=1;" parent="1" vertex="1">
          <mxGeometry x="580" y="220" width="90" height="60" as="geometry" />
        </mxCell>
        <mxCell id="xS7nU6-LhGZIR9sWQ-U--31" value="time" style="ellipse;whiteSpace=wrap;html=1;" parent="1" vertex="1">
          <mxGeometry x="610" y="420" width="90" height="60" as="geometry" />
        </mxCell>
        <mxCell id="xS7nU6-LhGZIR9sWQ-U--32" value="likes" style="ellipse;whiteSpace=wrap;html=1;" parent="1" vertex="1">
          <mxGeometry x="660" y="340" width="90" height="66" as="geometry" />
        </mxCell>
        <mxCell id="jAGuGoD_LXQO7vvx00pC-1" value="&lt;u&gt;id&lt;/u&gt;" style="ellipse;whiteSpace=wrap;html=1;" parent="1" vertex="1">
          <mxGeometry x="626" y="520" width="90" height="60" as="geometry" />
        </mxCell>
        <mxCell id="jAGuGoD_LXQO7vvx00pC-2" value="Szöveg" style="ellipse;whiteSpace=wrap;html=1;" parent="1" vertex="1">
          <mxGeometry x="604" y="590" width="90" height="60" as="geometry" />
        </mxCell>
        <mxCell id="jAGuGoD_LXQO7vvx00pC-4" value="time" style="ellipse;whiteSpace=wrap;html=1;" parent="1" vertex="1">
          <mxGeometry x="552" y="650" width="90" height="60" as="geometry" />
        </mxCell>
        <mxCell id="jAGuGoD_LXQO7vvx00pC-7" value="" style="endArrow=none;html=1;rounded=0;exitX=0.5;exitY=1;exitDx=0;exitDy=0;entryX=0.5;entryY=0;entryDx=0;entryDy=0;" parent="1" source="xS7nU6-LhGZIR9sWQ-U--17" target="jAGuGoD_LXQO7vvx00pC-28" edge="1">
          <mxGeometry width="50" height="50" relative="1" as="geometry">
            <mxPoint x="503" y="81" as="sourcePoint" />
            <mxPoint x="489" y="150" as="targetPoint" />
          </mxGeometry>
        </mxCell>
        <mxCell id="jAGuGoD_LXQO7vvx00pC-8" value="" style="endArrow=none;html=1;rounded=0;exitX=0;exitY=1;exitDx=0;exitDy=0;entryX=1;entryY=0;entryDx=0;entryDy=0;" parent="1" source="xS7nU6-LhGZIR9sWQ-U--28" target="DoYMIIwpCdfCXVVVg08J-18" edge="1">
          <mxGeometry width="50" height="50" relative="1" as="geometry">
            <mxPoint x="513" y="91" as="sourcePoint" />
            <mxPoint x="479" y="140" as="targetPoint" />
          </mxGeometry>
        </mxCell>
        <mxCell id="jAGuGoD_LXQO7vvx00pC-10" value="" style="endArrow=none;html=1;rounded=0;exitX=0;exitY=1;exitDx=0;exitDy=0;entryX=1;entryY=0.75;entryDx=0;entryDy=0;" parent="1" source="xS7nU6-LhGZIR9sWQ-U--27" target="DoYMIIwpCdfCXVVVg08J-18" edge="1">
          <mxGeometry width="50" height="50" relative="1" as="geometry">
            <mxPoint x="675" y="307" as="sourcePoint" />
            <mxPoint x="590" y="350" as="targetPoint" />
          </mxGeometry>
        </mxCell>
        <mxCell id="jAGuGoD_LXQO7vvx00pC-11" value="" style="endArrow=none;html=1;rounded=0;exitX=0;exitY=0.5;exitDx=0;exitDy=0;entryX=1;entryY=1;entryDx=0;entryDy=0;" parent="1" source="xS7nU6-LhGZIR9sWQ-U--32" target="DoYMIIwpCdfCXVVVg08J-18" edge="1">
          <mxGeometry width="50" height="50" relative="1" as="geometry">
            <mxPoint x="675" y="307" as="sourcePoint" />
            <mxPoint x="586" y="332" as="targetPoint" />
          </mxGeometry>
        </mxCell>
        <mxCell id="jAGuGoD_LXQO7vvx00pC-12" value="" style="endArrow=none;html=1;rounded=0;exitX=0;exitY=0;exitDx=0;exitDy=0;entryX=0.75;entryY=1;entryDx=0;entryDy=0;" parent="1" source="xS7nU6-LhGZIR9sWQ-U--31" target="DoYMIIwpCdfCXVVVg08J-18" edge="1">
          <mxGeometry width="50" height="50" relative="1" as="geometry">
            <mxPoint x="670" y="393" as="sourcePoint" />
            <mxPoint x="587" y="349" as="targetPoint" />
          </mxGeometry>
        </mxCell>
        <mxCell id="jAGuGoD_LXQO7vvx00pC-13" value="" style="endArrow=none;html=1;rounded=0;exitX=0;exitY=0.5;exitDx=0;exitDy=0;entryX=1;entryY=0.5;entryDx=0;entryDy=0;" parent="1" source="jAGuGoD_LXQO7vvx00pC-1" target="DoYMIIwpCdfCXVVVg08J-12" edge="1">
          <mxGeometry width="50" height="50" relative="1" as="geometry">
            <mxPoint x="664" y="449" as="sourcePoint" />
            <mxPoint x="621" y="370" as="targetPoint" />
          </mxGeometry>
        </mxCell>
        <mxCell id="jAGuGoD_LXQO7vvx00pC-14" value="" style="endArrow=none;html=1;rounded=0;exitX=0;exitY=0;exitDx=0;exitDy=0;entryX=1;entryY=1;entryDx=0;entryDy=0;" parent="1" source="jAGuGoD_LXQO7vvx00pC-2" target="DoYMIIwpCdfCXVVVg08J-12" edge="1">
          <mxGeometry width="50" height="50" relative="1" as="geometry">
            <mxPoint x="633" y="565" as="sourcePoint" />
            <mxPoint x="562" y="540" as="targetPoint" />
          </mxGeometry>
        </mxCell>
        <mxCell id="jAGuGoD_LXQO7vvx00pC-15" value="" style="endArrow=none;html=1;rounded=0;exitX=0.5;exitY=0;exitDx=0;exitDy=0;entryX=0.75;entryY=1;entryDx=0;entryDy=0;" parent="1" source="jAGuGoD_LXQO7vvx00pC-4" target="DoYMIIwpCdfCXVVVg08J-12" edge="1">
          <mxGeometry width="50" height="50" relative="1" as="geometry">
            <mxPoint x="586" y="619" as="sourcePoint" />
            <mxPoint x="562" y="570" as="targetPoint" />
          </mxGeometry>
        </mxCell>
        <mxCell id="jAGuGoD_LXQO7vvx00pC-18" value="" style="endArrow=none;html=1;rounded=0;exitX=0;exitY=1;exitDx=0;exitDy=0;entryX=1;entryY=0;entryDx=0;entryDy=0;" parent="1" source="xS7nU6-LhGZIR9sWQ-U--22" target="DoYMIIwpCdfCXVVVg08J-21" edge="1">
          <mxGeometry width="50" height="50" relative="1" as="geometry">
            <mxPoint x="466" y="635" as="sourcePoint" />
            <mxPoint x="450" y="550" as="targetPoint" />
          </mxGeometry>
        </mxCell>
        <mxCell id="jAGuGoD_LXQO7vvx00pC-19" value="" style="endArrow=none;html=1;rounded=0;exitX=0;exitY=0.5;exitDx=0;exitDy=0;entryX=1;entryY=0.75;entryDx=0;entryDy=0;" parent="1" source="xS7nU6-LhGZIR9sWQ-U--23" target="DoYMIIwpCdfCXVVVg08J-21" edge="1">
          <mxGeometry width="50" height="50" relative="1" as="geometry">
            <mxPoint x="634" y="781" as="sourcePoint" />
            <mxPoint x="610" y="810" as="targetPoint" />
          </mxGeometry>
        </mxCell>
        <mxCell id="jAGuGoD_LXQO7vvx00pC-20" value="&lt;u&gt;id&lt;/u&gt;" style="ellipse;whiteSpace=wrap;html=1;" parent="1" vertex="1">
          <mxGeometry x="552" y="950" width="90" height="60" as="geometry" />
        </mxCell>
        <mxCell id="jAGuGoD_LXQO7vvx00pC-21" value="név" style="ellipse;whiteSpace=wrap;html=1;" parent="1" vertex="1">
          <mxGeometry x="516" y="1020" width="90" height="60" as="geometry" />
        </mxCell>
        <mxCell id="jAGuGoD_LXQO7vvx00pC-22" value="" style="endArrow=none;html=1;rounded=0;exitX=0;exitY=0.5;exitDx=0;exitDy=0;entryX=1;entryY=0.5;entryDx=0;entryDy=0;" parent="1" source="jAGuGoD_LXQO7vvx00pC-20" target="DoYMIIwpCdfCXVVVg08J-16" edge="1">
          <mxGeometry width="50" height="50" relative="1" as="geometry">
            <mxPoint x="682" y="860" as="sourcePoint" />
            <mxPoint x="631" y="865" as="targetPoint" />
          </mxGeometry>
        </mxCell>
        <mxCell id="jAGuGoD_LXQO7vvx00pC-23" value="" style="endArrow=none;html=1;rounded=0;exitX=0;exitY=0;exitDx=0;exitDy=0;entryX=1;entryY=1;entryDx=0;entryDy=0;" parent="1" source="jAGuGoD_LXQO7vvx00pC-21" target="DoYMIIwpCdfCXVVVg08J-16" edge="1">
          <mxGeometry width="50" height="50" relative="1" as="geometry">
            <mxPoint x="562" y="990" as="sourcePoint" />
            <mxPoint x="482" y="980" as="targetPoint" />
          </mxGeometry>
        </mxCell>
        <mxCell id="jAGuGoD_LXQO7vvx00pC-24" value="&lt;u&gt;id&lt;/u&gt;" style="ellipse;whiteSpace=wrap;html=1;" parent="1" vertex="1">
          <mxGeometry x="-120" y="660" width="90" height="60" as="geometry" />
        </mxCell>
        <mxCell id="jAGuGoD_LXQO7vvx00pC-25" value="név" style="ellipse;whiteSpace=wrap;html=1;" parent="1" vertex="1">
          <mxGeometry x="-100" y="730" width="90" height="60" as="geometry" />
        </mxCell>
        <mxCell id="jAGuGoD_LXQO7vvx00pC-26" value="" style="endArrow=none;html=1;rounded=0;exitX=0;exitY=0.5;exitDx=0;exitDy=0;entryX=1;entryY=0.5;entryDx=0;entryDy=0;" parent="1" source="DoYMIIwpCdfCXVVVg08J-15" target="jAGuGoD_LXQO7vvx00pC-24" edge="1">
          <mxGeometry width="50" height="50" relative="1" as="geometry">
            <mxPoint x="560" y="1000" as="sourcePoint" />
            <mxPoint x="480" y="990" as="targetPoint" />
          </mxGeometry>
        </mxCell>
        <mxCell id="jAGuGoD_LXQO7vvx00pC-27" value="" style="endArrow=none;html=1;rounded=0;exitX=0;exitY=1;exitDx=0;exitDy=0;entryX=1;entryY=0.5;entryDx=0;entryDy=0;" parent="1" source="DoYMIIwpCdfCXVVVg08J-15" target="jAGuGoD_LXQO7vvx00pC-25" edge="1">
          <mxGeometry width="50" height="50" relative="1" as="geometry">
            <mxPoint x="100" y="720" as="sourcePoint" />
            <mxPoint x="30" y="660" as="targetPoint" />
          </mxGeometry>
        </mxCell>
        <mxCell id="jAGuGoD_LXQO7vvx00pC-28" value="Ismerős" style="shape=ext;margin=3;double=1;whiteSpace=wrap;html=1;align=center;" parent="1" vertex="1">
          <mxGeometry x="364" y="140" width="100" height="40" as="geometry" />
        </mxCell>
        <mxCell id="jAGuGoD_LXQO7vvx00pC-29" value="Tag" style="shape=ext;margin=3;double=1;whiteSpace=wrap;html=1;align=center;" parent="1" vertex="1">
          <mxGeometry x="70" y="860" width="100" height="40" as="geometry" />
        </mxCell>
        <mxCell id="jAGuGoD_LXQO7vvx00pC-32" value="csoport_role" style="ellipse;whiteSpace=wrap;html=1;" parent="1" vertex="1">
          <mxGeometry x="70" y="940" width="90" height="60" as="geometry" />
        </mxCell>
        <mxCell id="jAGuGoD_LXQO7vvx00pC-35" value="" style="endArrow=none;html=1;rounded=0;exitX=0.5;exitY=0;exitDx=0;exitDy=0;entryX=0.5;entryY=1;entryDx=0;entryDy=0;" parent="1" source="jAGuGoD_LXQO7vvx00pC-32" target="jAGuGoD_LXQO7vvx00pC-29" edge="1">
          <mxGeometry width="50" height="50" relative="1" as="geometry">
            <mxPoint x="49" y="975" as="sourcePoint" />
            <mxPoint x="105" y="910" as="targetPoint" />
          </mxGeometry>
        </mxCell>
        <mxCell id="jAGuGoD_LXQO7vvx00pC-37" value="&lt;u&gt;id&lt;/u&gt;" style="ellipse;whiteSpace=wrap;html=1;" parent="1" vertex="1">
          <mxGeometry x="-240" y="420" width="90" height="60" as="geometry" />
        </mxCell>
        <mxCell id="jAGuGoD_LXQO7vvx00pC-38" value="Szöveg" style="ellipse;whiteSpace=wrap;html=1;" parent="1" vertex="1">
          <mxGeometry x="-300" y="484" width="90" height="60" as="geometry" />
        </mxCell>
        <mxCell id="jAGuGoD_LXQO7vvx00pC-39" value="time" style="ellipse;whiteSpace=wrap;html=1;" parent="1" vertex="1">
          <mxGeometry x="-280" y="559" width="90" height="60" as="geometry" />
        </mxCell>
        <mxCell id="jAGuGoD_LXQO7vvx00pC-40" value="" style="endArrow=none;html=1;rounded=0;exitX=0;exitY=1;exitDx=0;exitDy=0;entryX=1;entryY=0.5;entryDx=0;entryDy=0;" parent="1" source="DoYMIIwpCdfCXVVVg08J-22" target="jAGuGoD_LXQO7vvx00pC-39" edge="1">
          <mxGeometry width="50" height="50" relative="1" as="geometry">
            <mxPoint x="20" y="724" as="sourcePoint" />
            <mxPoint x="-50" y="664" as="targetPoint" />
          </mxGeometry>
        </mxCell>
        <mxCell id="jAGuGoD_LXQO7vvx00pC-42" value="" style="endArrow=none;html=1;rounded=0;exitX=0;exitY=0.5;exitDx=0;exitDy=0;entryX=1;entryY=0.5;entryDx=0;entryDy=0;" parent="1" source="DoYMIIwpCdfCXVVVg08J-22" target="jAGuGoD_LXQO7vvx00pC-38" edge="1">
          <mxGeometry width="50" height="50" relative="1" as="geometry">
            <mxPoint x="-60" y="574" as="sourcePoint" />
            <mxPoint x="-100" y="599" as="targetPoint" />
          </mxGeometry>
        </mxCell>
        <mxCell id="jAGuGoD_LXQO7vvx00pC-43" value="" style="endArrow=none;html=1;rounded=0;exitX=0.25;exitY=0;exitDx=0;exitDy=0;entryX=1;entryY=1;entryDx=0;entryDy=0;" parent="1" source="DoYMIIwpCdfCXVVVg08J-22" target="jAGuGoD_LXQO7vvx00pC-37" edge="1">
          <mxGeometry width="50" height="50" relative="1" as="geometry">
            <mxPoint x="-60" y="544" as="sourcePoint" />
            <mxPoint x="-130" y="524" as="targetPoint" />
          </mxGeometry>
        </mxCell>
        <mxCell id="jAGuGoD_LXQO7vvx00pC-44" value="&lt;u&gt;id&lt;/u&gt;" style="ellipse;whiteSpace=wrap;html=1;" parent="1" vertex="1">
          <mxGeometry x="70" y="320" width="90" height="60" as="geometry" />
        </mxCell>
        <mxCell id="jAGuGoD_LXQO7vvx00pC-45" value="Szöveg" style="ellipse;whiteSpace=wrap;html=1;" parent="1" vertex="1">
          <mxGeometry x="-20" y="350" width="90" height="60" as="geometry" />
        </mxCell>
        <mxCell id="jAGuGoD_LXQO7vvx00pC-46" value="time" style="ellipse;whiteSpace=wrap;html=1;" parent="1" vertex="1">
          <mxGeometry x="-30" y="420" width="90" height="60" as="geometry" />
        </mxCell>
        <mxCell id="jAGuGoD_LXQO7vvx00pC-48" value="" style="endArrow=none;html=1;rounded=0;entryX=1;entryY=1;entryDx=0;entryDy=0;exitX=0.5;exitY=0;exitDx=0;exitDy=0;" parent="1" source="DoYMIIwpCdfCXVVVg08J-17" target="jAGuGoD_LXQO7vvx00pC-44" edge="1">
          <mxGeometry width="50" height="50" relative="1" as="geometry">
            <mxPoint x="190" y="570" as="sourcePoint" />
            <mxPoint x="240" y="520" as="targetPoint" />
          </mxGeometry>
        </mxCell>
        <mxCell id="jAGuGoD_LXQO7vvx00pC-49" value="" style="endArrow=none;html=1;rounded=0;entryX=1;entryY=1;entryDx=0;entryDy=0;exitX=0;exitY=0.5;exitDx=0;exitDy=0;" parent="1" source="DoYMIIwpCdfCXVVVg08J-17" target="jAGuGoD_LXQO7vvx00pC-45" edge="1">
          <mxGeometry width="50" height="50" relative="1" as="geometry">
            <mxPoint x="190" y="410" as="sourcePoint" />
            <mxPoint x="157" y="381" as="targetPoint" />
          </mxGeometry>
        </mxCell>
        <mxCell id="jAGuGoD_LXQO7vvx00pC-50" value="" style="endArrow=none;html=1;rounded=0;entryX=1;entryY=0.5;entryDx=0;entryDy=0;exitX=0;exitY=0.75;exitDx=0;exitDy=0;" parent="1" source="DoYMIIwpCdfCXVVVg08J-17" target="jAGuGoD_LXQO7vvx00pC-46" edge="1">
          <mxGeometry width="50" height="50" relative="1" as="geometry">
            <mxPoint x="130" y="440" as="sourcePoint" />
            <mxPoint x="67" y="411" as="targetPoint" />
          </mxGeometry>
        </mxCell>
        <mxCell id="jAGuGoD_LXQO7vvx00pC-57" value="ismerik egymást" style="rhombus;whiteSpace=wrap;html=1;" parent="1" vertex="1">
          <mxGeometry x="260" y="150" width="80" height="70" as="geometry" />
        </mxCell>
        <mxCell id="jAGuGoD_LXQO7vvx00pC-58" value="" style="endArrow=none;html=1;rounded=0;exitX=1;exitY=0.5;exitDx=0;exitDy=0;entryX=0;entryY=0.5;entryDx=0;entryDy=0;" parent="1" source="DoYMIIwpCdfCXVVVg08J-11" target="jAGuGoD_LXQO7vvx00pC-57" edge="1">
          <mxGeometry width="50" height="50" relative="1" as="geometry">
            <mxPoint x="260" y="310" as="sourcePoint" />
            <mxPoint x="310" y="260" as="targetPoint" />
          </mxGeometry>
        </mxCell>
        <mxCell id="jAGuGoD_LXQO7vvx00pC-59" value="" style="endArrow=none;html=1;rounded=0;exitX=1;exitY=0.5;exitDx=0;exitDy=0;entryX=0;entryY=1;entryDx=0;entryDy=0;" parent="1" source="jAGuGoD_LXQO7vvx00pC-57" target="jAGuGoD_LXQO7vvx00pC-28" edge="1">
          <mxGeometry width="50" height="50" relative="1" as="geometry">
            <mxPoint x="220" y="220" as="sourcePoint" />
            <mxPoint x="270" y="200" as="targetPoint" />
          </mxGeometry>
        </mxCell>
        <mxCell id="jAGuGoD_LXQO7vvx00pC-60" value="küldenek" style="rhombus;whiteSpace=wrap;html=1;" parent="1" vertex="1">
          <mxGeometry x="170" y="290" width="80" height="70" as="geometry" />
        </mxCell>
        <mxCell id="jAGuGoD_LXQO7vvx00pC-62" value="" style="endArrow=none;html=1;rounded=0;exitX=1;exitY=0;exitDx=0;exitDy=0;entryX=0.5;entryY=1;entryDx=0;entryDy=0;" parent="1" source="DoYMIIwpCdfCXVVVg08J-17" target="jAGuGoD_LXQO7vvx00pC-60" edge="1">
          <mxGeometry width="50" height="50" relative="1" as="geometry">
            <mxPoint x="210" y="300" as="sourcePoint" />
            <mxPoint x="219" y="384.9999999999998" as="targetPoint" />
          </mxGeometry>
        </mxCell>
        <mxCell id="jAGuGoD_LXQO7vvx00pC-63" value="létrehoznak" style="rhombus;whiteSpace=wrap;html=1;" parent="1" vertex="1">
          <mxGeometry x="333.5" y="270" width="80" height="70" as="geometry" />
        </mxCell>
        <mxCell id="jAGuGoD_LXQO7vvx00pC-65" value="" style="endArrow=none;html=1;rounded=0;exitX=0;exitY=0.5;exitDx=0;exitDy=0;entryX=1;entryY=0.5;entryDx=0;entryDy=0;" parent="1" source="DoYMIIwpCdfCXVVVg08J-18" target="jAGuGoD_LXQO7vvx00pC-63" edge="1">
          <mxGeometry width="50" height="50" relative="1" as="geometry">
            <mxPoint x="373.5" y="360" as="sourcePoint" />
            <mxPoint x="393.5" y="280" as="targetPoint" />
          </mxGeometry>
        </mxCell>
        <mxCell id="jAGuGoD_LXQO7vvx00pC-66" value="hozzászólnak" style="rhombus;whiteSpace=wrap;html=1;" parent="1" vertex="1">
          <mxGeometry x="447" y="400" width="90" height="70" as="geometry" />
        </mxCell>
        <mxCell id="jAGuGoD_LXQO7vvx00pC-67" value="" style="endArrow=classic;html=1;rounded=0;entryX=0.5;entryY=1;entryDx=0;entryDy=0;exitX=0.5;exitY=0;exitDx=0;exitDy=0;" parent="1" source="jAGuGoD_LXQO7vvx00pC-66" target="DoYMIIwpCdfCXVVVg08J-18" edge="1">
          <mxGeometry width="50" height="50" relative="1" as="geometry">
            <mxPoint x="320" y="510" as="sourcePoint" />
            <mxPoint x="370" y="460" as="targetPoint" />
          </mxGeometry>
        </mxCell>
        <mxCell id="jAGuGoD_LXQO7vvx00pC-68" value="" style="endArrow=none;html=1;rounded=0;entryX=0.5;entryY=1;entryDx=0;entryDy=0;exitX=0.5;exitY=0;exitDx=0;exitDy=0;" parent="1" source="DoYMIIwpCdfCXVVVg08J-12" target="jAGuGoD_LXQO7vvx00pC-66" edge="1">
          <mxGeometry width="50" height="50" relative="1" as="geometry">
            <mxPoint x="300" y="590" as="sourcePoint" />
            <mxPoint x="350" y="540" as="targetPoint" />
          </mxGeometry>
        </mxCell>
        <mxCell id="jAGuGoD_LXQO7vvx00pC-69" value="kapja" style="rhombus;whiteSpace=wrap;html=1;" parent="1" vertex="1">
          <mxGeometry x="-140" y="340" width="90" height="80" as="geometry" />
        </mxCell>
        <mxCell id="jAGuGoD_LXQO7vvx00pC-71" value="" style="curved=1;endArrow=classic;html=1;rounded=0;entryX=0;entryY=1;entryDx=0;entryDy=0;exitX=0.5;exitY=0;exitDx=0;exitDy=0;" parent="1" source="jAGuGoD_LXQO7vvx00pC-69" target="DoYMIIwpCdfCXVVVg08J-11" edge="1">
          <mxGeometry width="50" height="50" relative="1" as="geometry">
            <mxPoint x="-150" y="360" as="sourcePoint" />
            <mxPoint x="-100" y="310" as="targetPoint" />
            <Array as="points">
              <mxPoint x="-50" y="300" />
            </Array>
          </mxGeometry>
        </mxCell>
        <mxCell id="jAGuGoD_LXQO7vvx00pC-72" value="" style="endArrow=none;html=1;rounded=0;entryX=0.5;entryY=1;entryDx=0;entryDy=0;exitX=0.5;exitY=0;exitDx=0;exitDy=0;" parent="1" source="DoYMIIwpCdfCXVVVg08J-22" target="jAGuGoD_LXQO7vvx00pC-69" edge="1">
          <mxGeometry width="50" height="50" relative="1" as="geometry">
            <mxPoint x="-90" y="490" as="sourcePoint" />
            <mxPoint x="-40" y="440" as="targetPoint" />
          </mxGeometry>
        </mxCell>
        <mxCell id="jAGuGoD_LXQO7vvx00pC-73" value="tartalmazzák" style="rhombus;whiteSpace=wrap;html=1;" parent="1" vertex="1">
          <mxGeometry x="90" y="780" width="90" height="60" as="geometry" />
        </mxCell>
        <mxCell id="jAGuGoD_LXQO7vvx00pC-74" value="" style="endArrow=none;html=1;rounded=0;entryX=0.75;entryY=1;entryDx=0;entryDy=0;exitX=0.5;exitY=0;exitDx=0;exitDy=0;" parent="1" source="jAGuGoD_LXQO7vvx00pC-73" target="DoYMIIwpCdfCXVVVg08J-15" edge="1">
          <mxGeometry width="50" height="50" relative="1" as="geometry">
            <mxPoint x="40" y="810" as="sourcePoint" />
            <mxPoint x="90" y="760" as="targetPoint" />
          </mxGeometry>
        </mxCell>
        <mxCell id="jAGuGoD_LXQO7vvx00pC-75" value="" style="endArrow=none;html=1;rounded=0;entryX=0.5;entryY=1;entryDx=0;entryDy=0;exitX=0.5;exitY=0;exitDx=0;exitDy=0;" parent="1" source="jAGuGoD_LXQO7vvx00pC-29" target="jAGuGoD_LXQO7vvx00pC-73" edge="1">
          <mxGeometry width="50" height="50" relative="1" as="geometry">
            <mxPoint x="150" y="790" as="sourcePoint" />
            <mxPoint x="130" y="750" as="targetPoint" />
          </mxGeometry>
        </mxCell>
        <mxCell id="jAGuGoD_LXQO7vvx00pC-80" value="" style="endArrow=none;html=1;rounded=0;entryX=0;entryY=0.5;entryDx=0;entryDy=0;exitX=0.5;exitY=0;exitDx=0;exitDy=0;" parent="1" source="AKLdbMT2rQ2--2Y82ZPJ-1" target="DoYMIIwpCdfCXVVVg08J-21" edge="1">
          <mxGeometry width="50" height="50" relative="1" as="geometry">
            <mxPoint x="429.9999999999998" y="855" as="sourcePoint" />
            <mxPoint x="410" y="780" as="targetPoint" />
          </mxGeometry>
        </mxCell>
        <mxCell id="jAGuGoD_LXQO7vvx00pC-81" value="" style="endArrow=none;html=1;rounded=0;entryX=0.25;entryY=0;entryDx=0;entryDy=0;exitX=0.5;exitY=1;exitDx=0;exitDy=0;" parent="1" source="AKLdbMT2rQ2--2Y82ZPJ-1" target="DoYMIIwpCdfCXVVVg08J-16" edge="1">
          <mxGeometry width="50" height="50" relative="1" as="geometry">
            <mxPoint x="409.9999999999998" y="900" as="sourcePoint" />
            <mxPoint x="490" y="840" as="targetPoint" />
          </mxGeometry>
        </mxCell>
        <mxCell id="jAGuGoD_LXQO7vvx00pC-82" value="tagja" style="rhombus;whiteSpace=wrap;html=1;" parent="1" vertex="1">
          <mxGeometry x="300" y="390" width="80" height="60" as="geometry" />
        </mxCell>
        <mxCell id="jAGuGoD_LXQO7vvx00pC-84" value="" style="endArrow=none;html=1;rounded=0;entryX=0.5;entryY=1;entryDx=0;entryDy=0;exitX=1;exitY=0;exitDx=0;exitDy=0;" parent="1" source="DoYMIIwpCdfCXVVVg08J-15" target="jAGuGoD_LXQO7vvx00pC-82" edge="1">
          <mxGeometry width="50" height="50" relative="1" as="geometry">
            <mxPoint x="220" y="670" as="sourcePoint" />
            <mxPoint x="230" y="560" as="targetPoint" />
          </mxGeometry>
        </mxCell>
        <mxCell id="jAGuGoD_LXQO7vvx00pC-86" value="hozzácsatol" style="rhombus;whiteSpace=wrap;html=1;" parent="1" vertex="1">
          <mxGeometry x="355" y="630" width="92" height="80" as="geometry" />
        </mxCell>
        <mxCell id="jAGuGoD_LXQO7vvx00pC-87" value="" style="endArrow=none;html=1;rounded=0;entryX=0;entryY=0;entryDx=0;entryDy=0;exitX=0.5;exitY=1;exitDx=0;exitDy=0;" parent="1" source="jAGuGoD_LXQO7vvx00pC-86" target="DoYMIIwpCdfCXVVVg08J-21" edge="1">
          <mxGeometry width="50" height="50" relative="1" as="geometry">
            <mxPoint x="330" y="630" as="sourcePoint" />
            <mxPoint x="380" y="580" as="targetPoint" />
          </mxGeometry>
        </mxCell>
        <mxCell id="jAGuGoD_LXQO7vvx00pC-88" value="" style="curved=1;endArrow=classic;html=1;rounded=0;entryX=0;entryY=1;entryDx=0;entryDy=0;exitX=0.5;exitY=0;exitDx=0;exitDy=0;" parent="1" source="jAGuGoD_LXQO7vvx00pC-86" target="DoYMIIwpCdfCXVVVg08J-18" edge="1">
          <mxGeometry width="50" height="50" relative="1" as="geometry">
            <mxPoint x="340" y="570" as="sourcePoint" />
            <mxPoint x="390" y="520" as="targetPoint" />
            <Array as="points">
              <mxPoint x="340" y="520" />
            </Array>
          </mxGeometry>
        </mxCell>
        <mxCell id="lHJQh-t48Joblyxv4DGA-1" value="" style="endArrow=none;html=1;rounded=0;exitX=0.5;exitY=0;exitDx=0;exitDy=0;entryX=1;entryY=1;entryDx=0;entryDy=0;" parent="1" source="jAGuGoD_LXQO7vvx00pC-82" target="DoYMIIwpCdfCXVVVg08J-11" edge="1">
          <mxGeometry width="50" height="50" relative="1" as="geometry">
            <mxPoint x="330" y="420" as="sourcePoint" />
            <mxPoint x="380" y="370" as="targetPoint" />
          </mxGeometry>
        </mxCell>
        <mxCell id="5bFrScEzsBmw89j_egfc-1" value="" style="curved=1;endArrow=classic;html=1;rounded=0;entryX=0.75;entryY=1;entryDx=0;entryDy=0;exitX=0.5;exitY=0;exitDx=0;exitDy=0;" parent="1" source="jAGuGoD_LXQO7vvx00pC-60" target="DoYMIIwpCdfCXVVVg08J-11" edge="1">
          <mxGeometry width="50" height="50" relative="1" as="geometry">
            <mxPoint x="50" y="330" as="sourcePoint" />
            <mxPoint x="100" y="280" as="targetPoint" />
            <Array as="points">
              <mxPoint x="180" y="270" />
            </Array>
          </mxGeometry>
        </mxCell>
        <mxCell id="5bFrScEzsBmw89j_egfc-2" value="" style="curved=1;endArrow=classic;html=1;rounded=0;entryX=1;entryY=0.75;entryDx=0;entryDy=0;exitX=0.5;exitY=0;exitDx=0;exitDy=0;" parent="1" source="jAGuGoD_LXQO7vvx00pC-63" target="DoYMIIwpCdfCXVVVg08J-11" edge="1">
          <mxGeometry width="50" height="50" relative="1" as="geometry">
            <mxPoint x="220" y="300" as="sourcePoint" />
            <mxPoint x="190" y="250" as="targetPoint" />
            <Array as="points">
              <mxPoint x="260" y="250" />
            </Array>
          </mxGeometry>
        </mxCell>
        <mxCell id="AKLdbMT2rQ2--2Y82ZPJ-1" value="Albumkép" style="shape=rhombus;double=1;perimeter=rhombusPerimeter;whiteSpace=wrap;html=1;align=center;" vertex="1" parent="1">
          <mxGeometry x="344" y="860" width="120" height="60" as="geometry" />
        </mxCell>
      </root>
    </mxGraphModel>
  </diagram>
</mxfile>
